<svg xmlns="http://www.w3.org/2000/svg" width="34" height="32" viewBox="0 0 34 32" fill="none" class="icon icon-cart-empty">
<rect x="0.969727" width="33" height="32" rx="16" fill="#292034"/>
<path d="M25.4084 12.0656C25.8887 12.6606 26.0735 13.4298 25.9142 14.1767L24.1982 22.2188C24.075 22.7822 23.7635 23.2868 23.315 23.6493C22.8665 24.0119 22.3078 24.2107 21.7311 24.2131H13.2088C12.0262 24.2131 10.9882 23.3737 10.7417 22.2188L9.02572 14.1767C8.94692 13.8095 8.95134 13.4293 9.03868 13.0639C9.12601 12.6986 9.29403 12.3575 9.53041 12.0656C9.76642 11.7729 10.065 11.537 10.4043 11.375C10.7435 11.213 11.1148 11.1291 11.4907 11.1295H13.4393C13.96 8.98325 15.5813 7.5 17.4715 7.5C19.3723 7.5 20.981 8.98006 21.5027 11.1295H23.4481C24.2131 11.1295 24.9271 11.4716 25.4084 12.0656ZM17.4715 8.76119C16.2571 8.76119 15.1872 9.71637 14.7409 11.1295H20.2043C19.758 9.73019 18.6753 8.76119 17.4715 8.76119ZM24.6785 13.9143C24.7592 13.5414 24.6678 13.1557 24.4277 12.8593C24.3099 12.7129 24.1607 12.5949 23.9911 12.514C23.8216 12.4331 23.636 12.3913 23.4481 12.3918H11.4907C11.1082 12.3918 10.7512 12.5617 10.5122 12.8593C10.272 13.1568 10.1796 13.5414 10.2603 13.9132L11.9773 21.9543C12.1006 22.5323 12.618 22.9519 13.2088 22.9519H21.73C22.3218 22.9519 22.8393 22.5323 22.9625 21.9543L24.6785 13.9143Z" fill="white"/>
</svg>